<svg width="150" height="130" viewBox="0 0 150 130" fill="none" xmlns="http://www.w3.org/2000/svg">
<g filter="url(#filter0_d)">
<rect x="40.25" y="40.25" width="69.5" height="49.5" rx="15.75" stroke="black" stroke-width="0.5"/>
</g>
<path fill-rule="evenodd" clip-rule="evenodd" d="M59.1601 57.3815C58.5726 58.1146 57.6325 58.6929 56.6924 58.6103C56.5749 57.619 57.0352 56.5658 57.5738 55.9153C58.1613 55.1615 59.1895 54.6246 60.0219 54.5833C60.1198 55.6158 59.7379 56.6277 59.1601 57.3815ZM60.012 58.8065C59.1838 58.7563 58.4281 59.0691 57.8177 59.3219C57.4249 59.4845 57.0923 59.6222 56.8392 59.6222C56.5553 59.6222 56.2089 59.4771 55.82 59.3142C55.3104 59.1008 54.7278 58.8568 54.1169 58.8685C52.7166 58.8891 51.4142 59.7255 50.6993 61.0575C49.2304 63.7215 50.3174 67.6659 51.7373 69.8343C52.4326 70.9081 53.265 72.0852 54.3617 72.0439C54.8442 72.0247 55.1913 71.8694 55.5505 71.7087C55.9641 71.5237 56.3937 71.3315 57.0645 71.3315C57.712 71.3315 58.1228 71.5187 58.5172 71.6984C58.8921 71.8692 59.2522 72.0333 59.7868 72.0233C60.9227 72.0026 61.6376 70.9494 62.3328 69.8756C63.0832 68.723 63.4129 67.5982 63.4629 67.4275L63.4688 67.4077C63.4676 67.4065 63.4583 67.402 63.442 67.3941L63.442 67.3941C63.1911 67.273 61.2741 66.3476 61.2557 63.8661C61.2372 61.7831 62.7763 60.7278 63.0185 60.5617C63.0333 60.5516 63.0432 60.5448 63.0477 60.5412C62.0684 59.013 60.5408 58.8478 60.012 58.8065ZM67.8755 71.9097V55.812H73.6041C76.5615 55.812 78.6277 57.9598 78.6277 61.0987C78.6277 64.2377 76.5223 66.4061 73.5258 66.4061H70.2453V71.9097H67.8755ZM70.2451 57.9185H72.9772C75.0336 57.9185 76.2087 59.0749 76.2087 61.1091C76.2087 63.1432 75.0336 64.31 72.9674 64.31H70.2451V57.9185ZM86.452 69.9789C85.8253 71.2386 84.4445 72.0337 82.9561 72.0337C80.7528 72.0337 79.2153 70.65 79.2153 68.5643C79.2153 66.4991 80.7038 65.3117 83.4555 65.1361L86.4128 64.9503V64.0623C86.4128 62.7509 85.6001 62.0385 84.1508 62.0385C82.9561 62.0385 82.0845 62.689 81.9083 63.6802H79.7735C79.8421 61.5945 81.7026 60.0766 84.2193 60.0766C86.9318 60.0766 88.6945 61.5738 88.6945 63.8971V71.9098H86.501V69.9789H86.452ZM83.5924 70.1234C82.3292 70.1234 81.5262 69.4832 81.5262 68.5023C81.5262 67.4904 82.2998 66.9018 83.7785 66.8089L86.4127 66.6333V67.542C86.4127 69.0495 85.1984 70.1234 83.5924 70.1234ZM95.9702 72.5396C95.0204 75.3585 93.9334 76.2878 91.6224 76.2878C91.4461 76.2878 90.8585 76.2672 90.7214 76.2259V74.295C90.8683 74.3156 91.2307 74.3363 91.4167 74.3363C92.4645 74.3363 93.0521 73.8716 93.4144 72.6635L93.6298 71.951L89.6149 60.2315H92.0924L94.8833 69.7414H94.9322L97.7231 60.2315H100.132L95.9702 72.5396Z" fill="black"/>
<defs>
<filter id="filter0_d" x="0" y="0" width="150" height="130" filterUnits="userSpaceOnUse" color-interpolation-filters="sRGB">
<feFlood flood-opacity="0" result="BackgroundImageFix"/>
<feColorMatrix in="SourceAlpha" type="matrix" values="0 0 0 0 0 0 0 0 0 0 0 0 0 0 0 0 0 0 127 0"/>
<feOffset/>
<feGaussianBlur stdDeviation="20"/>
<feColorMatrix type="matrix" values="0 0 0 0 0 0 0 0 0 0 0 0 0 0 0 0 0 0 0.1 0"/>
<feBlend mode="normal" in2="BackgroundImageFix" result="effect1_dropShadow"/>
<feBlend mode="normal" in="SourceGraphic" in2="effect1_dropShadow" result="shape"/>
</filter>
</defs>
</svg>
