<svg width="150" height="130" viewBox="0 0 150 130" fill="none" xmlns="http://www.w3.org/2000/svg">
<g filter="url(#filter0_d)">
<rect x="40.25" y="40.25" width="69.5" height="49.5" rx="15.75" stroke="black" stroke-width="0.5"/>
</g>
<path fill-rule="evenodd" clip-rule="evenodd" d="M73.0603 72.8293V66.5356H76.1786C77.4565 66.5356 78.535 66.0896 79.4142 65.21L79.6252 64.987C81.2313 63.1658 81.1258 60.3287 79.4142 58.6438C78.5584 57.7518 77.3861 57.2686 76.1786 57.2934H71.1729V72.8293H73.0603ZM73.0605 64.6277V59.2012H76.2262C76.9063 59.2012 77.5511 59.4738 78.0319 59.9693C79.0519 61.01 79.0754 62.7445 78.0905 63.8224C77.6098 64.3551 76.9297 64.6524 76.2262 64.6277H73.0605ZM88.4293 63.0295C87.6204 62.249 86.5184 61.8526 85.1234 61.8526C83.3298 61.8526 81.9816 62.5463 81.0907 63.9215L82.7553 65.0242C83.3649 64.0826 84.1973 63.6118 85.2524 63.6118C85.9206 63.6118 86.5653 63.872 87.0694 64.3428C87.5618 64.7888 87.8432 65.433 87.8432 66.1144V66.5728C87.1163 66.1516 86.2019 65.9286 85.0765 65.9286C83.7635 65.9286 82.7084 66.2507 81.923 66.9073C81.1375 67.5639 80.739 68.4312 80.739 69.5338C80.7155 70.5373 81.1258 71.4913 81.8527 72.1355C82.5912 72.8293 83.5291 73.1762 84.631 73.1762C85.9323 73.1762 86.9639 72.5691 87.7494 71.355H87.8314V72.8293H89.6368V66.2755C89.6368 64.9003 89.2382 63.81 88.4293 63.0295ZM83.3067 70.8718C82.9197 70.5745 82.6852 70.0913 82.6852 69.5709C82.6852 68.9887 82.9432 68.5055 83.4474 68.1214C83.9633 67.7374 84.6081 67.5391 85.3703 67.5391C86.4255 67.5267 87.2462 67.7745 87.8325 68.2701C87.8325 69.1125 87.5159 69.8435 86.8945 70.463C86.3317 71.0576 85.5696 71.3921 84.7723 71.3921C84.2447 71.4045 83.7288 71.2187 83.3067 70.8718ZM93.693 77.5L100 62.1995H97.9485L95.0295 69.8311H94.9943L92.0049 62.1995H89.9533L94.0916 72.1479L91.747 77.5H93.693Z" fill="#3C4043"/>
<path d="M66.5441 65.1729C66.5441 64.5658 66.4972 63.9587 66.4035 63.364H58.4435V66.7958H63.0038C62.8162 67.8985 62.2066 68.8896 61.3156 69.509V71.7391H64.0354C65.6297 70.1904 66.5441 67.8985 66.5441 65.1729Z" fill="#4285F4"/>
<path d="M58.4438 73.8948C60.7181 73.8948 62.6407 73.1019 64.0358 71.7391L61.316 69.509C60.554 70.0541 59.581 70.3639 58.4438 70.3639C56.2399 70.3639 54.3759 68.7905 53.7077 66.6843H50.9059V68.9887C52.3361 71.9992 55.2552 73.8948 58.4438 73.8948Z" fill="#34A853"/>
<path d="M53.708 66.6843C53.3563 65.5817 53.3563 64.38 53.708 63.2649V60.973H50.9058C49.6981 63.4879 49.6981 66.4613 50.9058 68.9763L53.708 66.6843Z" fill="#FBBC04"/>
<path d="M58.4439 59.5854C59.6513 59.5606 60.8119 60.0438 61.6794 60.9234L64.0944 58.3712C62.5587 56.8598 60.5423 56.0297 58.4439 56.0545C55.2552 56.0545 52.3361 57.9624 50.9059 60.9729L53.7077 63.2773C54.3759 61.1588 56.2399 59.5854 58.4439 59.5854Z" fill="#EA4335"/>
<defs>
<filter id="filter0_d" x="0" y="0" width="150" height="130" filterUnits="userSpaceOnUse" color-interpolation-filters="sRGB">
<feFlood flood-opacity="0" result="BackgroundImageFix"/>
<feColorMatrix in="SourceAlpha" type="matrix" values="0 0 0 0 0 0 0 0 0 0 0 0 0 0 0 0 0 0 127 0"/>
<feOffset/>
<feGaussianBlur stdDeviation="20"/>
<feColorMatrix type="matrix" values="0 0 0 0 0 0 0 0 0 0 0 0 0 0 0 0 0 0 0.1 0"/>
<feBlend mode="normal" in2="BackgroundImageFix" result="effect1_dropShadow"/>
<feBlend mode="normal" in="SourceGraphic" in2="effect1_dropShadow" result="shape"/>
</filter>
</defs>
</svg>
