<svg width="31" height="19" viewBox="0 0 31 19" fill="none" xmlns="http://www.w3.org/2000/svg">
<path fill-rule="evenodd" clip-rule="evenodd" d="M15.7474 16.3401C14.1492 17.7209 12.076 18.5545 9.81059 18.5545C4.75573 18.5545 0.657959 14.4043 0.657959 9.2848C0.657959 4.16527 4.75573 0.0150757 9.81059 0.0150757C12.076 0.0150757 14.1492 0.848657 15.7474 2.22949C17.3457 0.848661 19.4189 0.0150827 21.6843 0.0150827C26.7391 0.0150827 30.8369 4.16528 30.8369 9.2848C30.8369 14.4043 26.7391 18.5545 21.6843 18.5545C19.4188 18.5545 17.3457 17.7209 15.7474 16.3401Z" fill="#ED0006"/>
<path fill-rule="evenodd" clip-rule="evenodd" d="M15.7474 16.3401C17.7154 14.6399 18.9632 12.1099 18.9632 9.2848C18.9632 6.45967 17.7154 3.92973 15.7474 2.22949C17.3457 0.848656 19.4189 0.0150757 21.6843 0.0150757C26.7391 0.0150757 30.8369 4.16527 30.8369 9.2848C30.8369 14.4043 26.7391 18.5545 21.6843 18.5545C19.4189 18.5545 17.3457 17.7209 15.7474 16.3401Z" fill="#F9A000"/>
<path fill-rule="evenodd" clip-rule="evenodd" d="M15.7475 16.3401C17.7154 14.6398 18.9632 12.1099 18.9632 9.2848C18.9632 6.45969 17.7154 3.92976 15.7475 2.22952C13.7796 3.92976 12.5317 6.45969 12.5317 9.2848C12.5317 12.1099 13.7796 14.6398 15.7475 16.3401Z" fill="#FF5E00"/>
</svg>
