<svg width="150" height="130" viewBox="0 0 150 130" fill="none" xmlns="http://www.w3.org/2000/svg">
<g filter="url(#filter0_d)">
<rect x="40.25" y="40.25" width="69.5" height="49.5" rx="15.75" stroke="black" stroke-width="0.5"/>
</g>
<path fill-rule="evenodd" clip-rule="evenodd" d="M71.0881 78.4338L71.5426 75.4149L70.5303 75.3902H65.6963L69.0557 53.1118C69.0662 53.0443 69.1 52.9817 69.1494 52.9372C69.1991 52.8926 69.2624 52.8682 69.3286 52.8682H77.4794C80.1856 52.8682 82.053 53.457 83.0278 54.6194C83.4849 55.1647 83.776 55.7346 83.9169 56.3617C84.0647 57.0197 84.0671 57.8058 83.923 58.7648L83.9126 58.8346V59.4491L84.3697 59.72C84.7545 59.9336 85.0604 60.1779 85.2951 60.4577C85.686 60.9241 85.9389 61.5167 86.0457 62.2191C86.1562 62.9416 86.1197 63.8015 85.9389 64.775C85.7303 65.8946 85.3932 66.8699 84.9378 67.6677C84.5191 68.4029 83.9856 69.0129 83.352 69.4854C82.7471 69.9344 82.0286 70.2753 81.2161 70.4935C80.4287 70.7078 79.5311 70.816 78.5465 70.816H77.9122C77.4587 70.816 77.0182 70.9868 76.6723 71.2931C76.3254 71.6057 76.0962 72.0329 76.0258 72.5L75.9779 72.7719L75.1749 78.0932L75.1386 78.2885C75.1289 78.3503 75.1123 78.3811 75.088 78.402C75.0663 78.4211 75.0352 78.4338 75.0047 78.4338H71.0881Z" fill="#28356A"/>
<path fill-rule="evenodd" clip-rule="evenodd" d="M84.8029 58.9056C84.7788 59.0683 84.7508 59.2345 84.7196 59.4053C83.6448 65.1775 79.9672 67.1715 75.2705 67.1715H72.879C72.3046 67.1715 71.8205 67.6076 71.7312 68.2003L70.16 78.6237C70.1018 79.0129 70.3885 79.3635 70.7639 79.3635H75.0054C75.5076 79.3635 75.9342 78.9819 76.0133 78.4638L76.055 78.2385L76.8536 72.9381L76.9049 72.6474C76.9831 72.1275 77.4107 71.7457 77.9129 71.7457H78.5472C82.6565 71.7457 85.8736 70.0008 86.8139 64.9512C87.2065 62.8418 87.0032 61.0804 85.9639 59.8416C85.6494 59.4682 85.2593 59.1581 84.8029 58.9056Z" fill="#298FC2"/>
<path fill-rule="evenodd" clip-rule="evenodd" d="M83.6779 58.4368C83.5136 58.3866 83.3442 58.3413 83.1704 58.3003C82.9957 58.2603 82.8168 58.225 82.6325 58.1939C81.9877 58.0849 81.2811 58.0333 80.5244 58.0333H74.1358C73.9783 58.0333 73.8288 58.0704 73.6952 58.1376C73.4005 58.2858 73.1816 58.5775 73.1286 58.9347L71.7694 67.9379L71.7305 68.2004C71.8198 67.6077 72.3039 67.1716 72.8784 67.1716H75.2698C79.9665 67.1716 83.6441 65.1766 84.719 59.4054C84.7511 59.2346 84.7781 59.0684 84.8022 58.9057C84.5303 58.7547 84.2358 58.6257 83.9186 58.5157C83.8403 58.4884 83.7595 58.4622 83.6779 58.4368Z" fill="#22284F"/>
<path fill-rule="evenodd" clip-rule="evenodd" d="M73.129 58.9347C73.1821 58.5775 73.4009 58.2858 73.6956 58.1386C73.8302 58.0712 73.9787 58.034 74.1362 58.034H80.5248C81.2815 58.034 81.9881 58.0859 82.6329 58.1949C82.8172 58.2257 82.9961 58.2613 83.1708 58.3013C83.3446 58.342 83.514 58.3876 83.6783 58.4375C83.7599 58.4629 83.8407 58.4894 83.9198 58.5156C84.2369 58.6256 84.5317 58.7557 84.8036 58.9056C85.1234 56.7726 84.8009 55.3203 83.6983 54.0051C82.4825 52.5571 80.2884 51.9375 77.4808 51.9375H69.3297C68.7563 51.9375 68.267 52.3736 68.1784 52.9672L64.7835 75.4747C64.7165 75.92 65.0449 76.3217 65.4742 76.3217H70.5063L73.129 58.9347Z" fill="#28356A"/>
<defs>
<filter id="filter0_d" x="0" y="0" width="150" height="130" filterUnits="userSpaceOnUse" color-interpolation-filters="sRGB">
<feFlood flood-opacity="0" result="BackgroundImageFix"/>
<feColorMatrix in="SourceAlpha" type="matrix" values="0 0 0 0 0 0 0 0 0 0 0 0 0 0 0 0 0 0 127 0"/>
<feOffset/>
<feGaussianBlur stdDeviation="20"/>
<feColorMatrix type="matrix" values="0 0 0 0 0 0 0 0 0 0 0 0 0 0 0 0 0 0 0.1 0"/>
<feBlend mode="normal" in2="BackgroundImageFix" result="effect1_dropShadow"/>
<feBlend mode="normal" in="SourceGraphic" in2="effect1_dropShadow" result="shape"/>
</filter>
</defs>
</svg>
