<svg width="33" height="11" viewBox="0 0 33 11" fill="none" xmlns="http://www.w3.org/2000/svg">
<path fill-rule="evenodd" clip-rule="evenodd" d="M8.2476 10.8008H5.40444L3.27242 2.66702C3.17122 2.29287 2.95636 1.96209 2.64029 1.8062C1.85153 1.41442 0.982362 1.10262 0.0341797 0.94537V0.63222H4.61429C5.24641 0.63222 5.7205 1.10262 5.79952 1.64894L6.90573 7.51612L9.7475 0.63222H12.5116L8.2476 10.8008ZM14.0919 10.8008H11.4068L13.6178 0.63222H16.303L14.0919 10.8008ZM19.7768 3.44923C19.8559 2.90156 20.33 2.58841 20.8831 2.58841C21.7522 2.50978 22.699 2.66703 23.4892 3.05745L23.9633 0.868109C23.1731 0.554958 22.304 0.397705 21.5152 0.397705C18.9091 0.397705 17.0127 1.80621 17.0127 3.76103C17.0127 5.24816 18.356 6.029 19.3041 6.4994C20.33 6.96845 20.725 7.2816 20.646 7.75065C20.646 8.45422 19.8559 8.76737 19.0671 8.76737C18.1189 8.76737 17.1707 8.53285 16.3029 8.14107L15.8289 10.3318C16.777 10.7222 17.8029 10.8794 18.751 10.8794C21.6732 10.9567 23.4892 9.54957 23.4892 7.4375C23.4892 4.77775 19.7768 4.62185 19.7768 3.44923ZM32.8864 10.8008L30.7544 0.63222H28.4644C27.9903 0.63222 27.5162 0.94537 27.3582 1.41442L23.4102 10.8008H26.1743L26.726 9.31504H30.1223L30.4384 10.8008H32.8864ZM28.8595 3.37064L29.6482 7.20301H27.4372L28.8595 3.37064Z" fill="#172B85"/>
</svg>
