<svg width="18" height="21" viewBox="0 0 18 21" fill="none" xmlns="http://www.w3.org/2000/svg">
<path d="M4 10.5739H6V12.5625H4V10.5739Z" fill="#4F4F4F"/>
<path d="M4 14.5511H6V16.5398H4V14.5511Z" fill="#4F4F4F"/>
<path d="M10 10.5739H8V12.5625H10V10.5739Z" fill="#4F4F4F"/>
<path d="M8 14.5511H10V16.5398H8V14.5511Z" fill="#4F4F4F"/>
<path d="M14 10.5739H12V12.5625H14V10.5739Z" fill="#4F4F4F"/>
<path d="M12 14.5511H14V16.5398H12V14.5511Z" fill="#4F4F4F"/>
<path fill-rule="evenodd" clip-rule="evenodd" d="M16 20.517H2C0.897 20.517 0 19.6251 0 18.5284V4.60795C0 3.51122 0.897 2.61931 2 2.61931H4V0.630676H6V2.61931H12V0.630676H14V2.61931H16C17.103 2.61931 18 3.51122 18 4.60795V18.5284C18 19.6251 17.103 20.517 16 20.517ZM16.0001 6.59659L16 4.60795H2V6.59659H16.0001ZM16.0003 8.58522L16.001 18.5284H2V8.58522H16.0003Z" fill="#4F4F4F"/>
</svg>
