<svg width="479" height="96" viewBox="0 0 479 96" fill="none" xmlns="http://www.w3.org/2000/svg">
<line x1="203" y1="20" x2="223" y2="20" stroke="#EB5757" stroke-width="4"/>
<line x1="213" y1="10" x2="213" y2="30" stroke="#EB5757" stroke-width="4"/>
<path d="M37.518 35.04C37.518 36.2733 37.3207 37.5313 36.926 38.814C36.5313 40.0967 35.9393 41.3053 35.15 42.44C34.3607 43.5253 33.3493 44.4873 32.116 45.326C30.8827 46.1647 29.4273 46.806 27.75 47.25V47.546C29.23 47.7927 30.636 48.212 31.968 48.804C33.3493 49.396 34.558 50.21 35.594 51.246C36.63 52.282 37.4687 53.54 38.11 55.02C38.7513 56.5 39.072 58.2513 39.072 60.274C39.072 62.938 38.5047 65.2567 37.37 67.23C36.2847 69.154 34.8293 70.7327 33.004 71.966C31.228 73.1993 29.1807 74.112 26.862 74.704C24.5433 75.296 22.1753 75.592 19.758 75.592C18.9193 75.592 17.9327 75.592 16.798 75.592C15.6633 75.592 14.4793 75.5427 13.246 75.444C12.0127 75.3947 10.7793 75.296 9.546 75.148C8.31267 75.0493 7.22733 74.8767 6.29 74.63V23.644C8.11533 23.348 10.2367 23.1013 12.654 22.904C15.0713 22.7067 17.7107 22.608 20.572 22.608C22.496 22.608 24.4447 22.7807 26.418 23.126C28.4407 23.422 30.266 24.0387 31.894 24.976C33.522 25.864 34.854 27.122 35.89 28.75C36.9753 30.378 37.518 32.4747 37.518 35.04ZM20.35 70.264C21.9287 70.264 23.458 70.0913 24.938 69.746C26.418 69.3513 27.7253 68.7593 28.86 67.97C29.9947 67.1313 30.8827 66.12 31.524 64.936C32.2147 63.752 32.56 62.346 32.56 60.718C32.56 58.6953 32.1407 57.0673 31.302 55.834C30.5127 54.6007 29.452 53.6387 28.12 52.948C26.8373 52.2573 25.382 51.7887 23.754 51.542C22.126 51.2953 20.498 51.172 18.87 51.172H12.432V69.746C12.7773 69.8447 13.2707 69.9187 13.912 69.968C14.5533 70.0173 15.244 70.0667 15.984 70.116C16.724 70.1653 17.4887 70.2147 18.278 70.264C19.0673 70.264 19.758 70.264 20.35 70.264ZM16.28 45.992C17.1187 45.992 18.13 45.9673 19.314 45.918C20.498 45.8687 21.4847 45.7947 22.274 45.696C23.458 45.3013 24.568 44.8327 25.604 44.29C26.64 43.698 27.5527 43.032 28.342 42.292C29.1807 41.5027 29.822 40.6147 30.266 39.628C30.7593 38.592 31.006 37.482 31.006 36.298C31.006 34.67 30.6853 33.338 30.044 32.302C29.452 31.2167 28.638 30.3533 27.602 29.712C26.566 29.0707 25.382 28.6267 24.05 28.38C22.718 28.084 21.3613 27.936 19.98 27.936C18.352 27.936 16.8473 27.9853 15.466 28.084C14.134 28.1333 13.1227 28.232 12.432 28.38V45.992H16.28ZM50.5408 56.5C50.5408 50.2347 51.9222 45.4493 54.6848 42.144C57.4968 38.7893 61.5175 37.112 66.7468 37.112C69.5095 37.112 71.9022 37.5807 73.9248 38.518C75.9968 39.406 77.6988 40.7133 79.0308 42.44C80.3628 44.1173 81.3495 46.1647 81.9908 48.582C82.6322 50.95 82.9528 53.5893 82.9528 56.5C82.9528 62.7653 81.5468 67.5753 78.7348 70.93C75.9722 74.2353 71.9762 75.888 66.7468 75.888C63.9842 75.888 61.5668 75.444 59.4948 74.556C57.4722 73.6187 55.7948 72.3113 54.4628 70.634C53.1308 68.9073 52.1442 66.86 51.5028 64.492C50.8615 62.0747 50.5408 59.4107 50.5408 56.5ZM56.6828 56.5C56.6828 58.3747 56.8555 60.1753 57.2008 61.902C57.5955 63.6287 58.1875 65.1333 58.9768 66.416C59.7662 67.6987 60.8022 68.7347 62.0848 69.524C63.3675 70.3133 64.9215 70.708 66.7468 70.708C73.4562 70.7573 76.8108 66.0213 76.8108 56.5C76.8108 54.576 76.6135 52.7507 76.2188 51.024C75.8735 49.2973 75.3062 47.7927 74.5168 46.51C73.7275 45.2273 72.6915 44.216 71.4088 43.476C70.1262 42.6867 68.5722 42.292 66.7468 42.292C60.0375 42.2427 56.6828 46.9787 56.6828 56.5ZM93.9147 56.5C93.9147 50.2347 95.296 45.4493 98.0587 42.144C100.871 38.7893 104.891 37.112 110.121 37.112C112.883 37.112 115.276 37.5807 117.299 38.518C119.371 39.406 121.073 40.7133 122.405 42.44C123.737 44.1173 124.723 46.1647 125.365 48.582C126.006 50.95 126.327 53.5893 126.327 56.5C126.327 62.7653 124.921 67.5753 122.109 70.93C119.346 74.2353 115.35 75.888 110.121 75.888C107.358 75.888 104.941 75.444 102.869 74.556C100.846 73.6187 99.1687 72.3113 97.8367 70.634C96.5047 68.9073 95.518 66.86 94.8767 64.492C94.2353 62.0747 93.9147 59.4107 93.9147 56.5ZM100.057 56.5C100.057 58.3747 100.229 60.1753 100.575 61.902C100.969 63.6287 101.561 65.1333 102.351 66.416C103.14 67.6987 104.176 68.7347 105.459 69.524C106.741 70.3133 108.295 70.708 110.121 70.708C116.83 70.7573 120.185 66.0213 120.185 56.5C120.185 54.576 119.987 52.7507 119.593 51.024C119.247 49.2973 118.68 47.7927 117.891 46.51C117.101 45.2273 116.065 44.216 114.783 43.476C113.5 42.6867 111.946 42.292 110.121 42.292C103.411 42.2427 100.057 46.9787 100.057 56.5ZM148.685 58.35H145.281V75H139.361V23.2H145.281V54.724L148.315 53.688L159.785 38H166.667L155.345 52.874L152.311 55.316L156.011 58.276L168.369 75H161.043L148.685 58.35ZM241.738 64.936C241.738 63.456 241.294 62.2967 240.406 61.458C239.518 60.6193 238.408 59.9287 237.076 59.386C235.793 58.794 234.362 58.2513 232.784 57.758C231.254 57.2153 229.824 56.5493 228.492 55.76C227.209 54.9213 226.124 53.8607 225.236 52.578C224.348 51.2953 223.904 49.5687 223.904 47.398C223.904 43.846 224.915 41.256 226.938 39.628C228.96 37.9507 231.772 37.112 235.374 37.112C238.038 37.112 240.258 37.3587 242.034 37.852C243.859 38.296 245.438 38.8387 246.77 39.48L245.364 44.364C244.229 43.8213 242.848 43.3527 241.22 42.958C239.641 42.514 237.939 42.292 236.114 42.292C233.943 42.292 232.34 42.662 231.304 43.402C230.317 44.142 229.824 45.4247 229.824 47.25C229.824 48.5327 230.268 49.544 231.156 50.284C232.044 50.9747 233.129 51.616 234.412 52.208C235.744 52.7507 237.174 53.2933 238.704 53.836C240.282 54.3787 241.713 55.094 242.996 55.982C244.328 56.87 245.438 58.0047 246.326 59.386C247.214 60.718 247.658 62.494 247.658 64.714C247.658 66.2927 247.386 67.7727 246.844 69.154C246.35 70.5353 245.561 71.7193 244.476 72.706C243.39 73.6927 242.034 74.4573 240.406 75C238.827 75.592 236.952 75.888 234.782 75.888C231.97 75.888 229.577 75.6167 227.604 75.074C225.63 74.5313 223.978 73.89 222.646 73.15L224.422 68.118C225.556 68.7593 227.036 69.3513 228.862 69.894C230.687 70.4367 232.537 70.708 234.412 70.708C236.533 70.708 238.284 70.2887 239.666 69.45C241.047 68.6113 241.738 67.1067 241.738 64.936ZM284.058 75V53.91C284.058 51.986 283.935 50.3087 283.688 48.878C283.491 47.398 283.096 46.1893 282.504 45.252C281.912 44.2653 281.098 43.5253 280.062 43.032C279.076 42.5387 277.768 42.292 276.14 42.292C273.822 42.292 271.725 43.0567 269.85 44.586C267.976 46.066 266.767 47.99 266.224 50.358V75H260.304V23.2H266.224V42.144H266.52C267.803 40.6147 269.332 39.406 271.108 38.518C272.934 37.5807 275.178 37.112 277.842 37.112C279.914 37.112 281.715 37.3587 283.244 37.852C284.774 38.296 286.032 39.11 287.018 40.294C288.054 41.478 288.794 43.0813 289.238 45.104C289.732 47.0773 289.978 49.5933 289.978 52.652V75H284.058ZM313.797 58.35H310.393V75H304.473V23.2H310.393V54.724L313.427 53.688L324.897 38H331.779L320.457 52.874L317.423 55.316L321.123 58.276L333.481 75H326.155L313.797 58.35ZM342.991 40.738C344.866 39.6033 347.036 38.7647 349.503 38.222C352.019 37.6793 354.634 37.408 357.347 37.408C359.912 37.408 361.96 37.7533 363.489 38.444C365.068 39.1347 366.252 40.0473 367.041 41.182C367.88 42.2673 368.422 43.476 368.669 44.808C368.965 46.14 369.113 47.472 369.113 48.804C369.113 51.764 369.039 54.65 368.891 57.462C368.743 60.274 368.669 62.938 368.669 65.454C368.669 67.2793 368.743 69.006 368.891 70.634C369.039 72.262 369.31 73.7667 369.705 75.148H365.339L363.785 69.968H363.415C362.971 70.6587 362.404 71.3493 361.713 72.04C361.072 72.6813 360.282 73.2733 359.345 73.816C358.408 74.3093 357.322 74.7287 356.089 75.074C354.856 75.4193 353.45 75.592 351.871 75.592C350.292 75.592 348.812 75.3453 347.431 74.852C346.099 74.3587 344.94 73.668 343.953 72.78C342.966 71.8427 342.177 70.7327 341.585 69.45C341.042 68.1673 340.771 66.712 340.771 65.084C340.771 62.9133 341.215 61.1127 342.103 59.682C342.991 58.202 344.224 57.0427 345.803 56.204C347.431 55.316 349.355 54.6993 351.575 54.354C353.844 53.9593 356.336 53.762 359.049 53.762C359.74 53.762 360.406 53.762 361.047 53.762C361.738 53.762 362.428 53.8113 363.119 53.91C363.267 52.43 363.341 51.098 363.341 49.914C363.341 47.2007 362.798 45.3013 361.713 44.216C360.628 43.1307 358.654 42.588 355.793 42.588C354.954 42.588 354.042 42.662 353.055 42.81C352.118 42.9087 351.131 43.0813 350.095 43.328C349.108 43.5253 348.146 43.7967 347.209 44.142C346.321 44.438 345.532 44.7833 344.841 45.178L342.991 40.738ZM353.499 70.412C354.88 70.412 356.114 70.2393 357.199 69.894C358.284 69.4993 359.222 69.0307 360.011 68.488C360.8 67.896 361.442 67.2547 361.935 66.564C362.478 65.8733 362.872 65.2073 363.119 64.566V58.424C362.428 58.3747 361.713 58.35 360.973 58.35C360.282 58.3007 359.592 58.276 358.901 58.276C357.372 58.276 355.867 58.3747 354.387 58.572C352.956 58.72 351.674 59.0407 350.539 59.534C349.454 59.978 348.566 60.6193 347.875 61.458C347.234 62.2473 346.913 63.2587 346.913 64.492C346.913 66.2187 347.53 67.6493 348.763 68.784C349.996 69.8693 351.575 70.412 353.499 70.412ZM381.922 71.596C381.922 70.264 382.292 69.228 383.032 68.488C383.821 67.6987 384.857 67.304 386.14 67.304C387.472 67.304 388.533 67.6987 389.322 68.488C390.111 69.228 390.506 70.264 390.506 71.596C390.506 72.8787 390.111 73.9147 389.322 74.704C388.533 75.4933 387.472 75.888 386.14 75.888C384.857 75.888 383.821 75.4933 383.032 74.704C382.292 73.9147 381.922 72.8787 381.922 71.596ZM408.848 38V59.09C408.848 61.014 408.947 62.716 409.144 64.196C409.391 65.6267 409.786 66.8353 410.328 67.822C410.871 68.7593 411.611 69.4747 412.548 69.968C413.486 70.4613 414.67 70.708 416.1 70.708C417.432 70.708 418.616 70.5107 419.652 70.116C420.688 69.672 421.601 69.08 422.39 68.34C423.229 67.6 423.944 66.7613 424.536 65.824C425.178 64.8373 425.696 63.8013 426.09 62.716V38H432.01V64.492C432.01 66.268 432.06 68.118 432.158 70.042C432.306 71.9167 432.528 73.5693 432.824 75H428.754L427.274 69.154H426.904C425.77 71.078 424.24 72.6813 422.316 73.964C420.392 75.2467 417.95 75.888 414.99 75.888C413.017 75.888 411.266 75.6413 409.736 75.148C408.256 74.704 406.998 73.89 405.962 72.706C404.976 71.522 404.211 69.9433 403.668 67.97C403.175 65.9473 402.928 63.4067 402.928 60.348V38H408.848ZM446.519 40.738C448.394 39.6033 450.564 38.7647 453.031 38.222C455.547 37.6793 458.162 37.408 460.875 37.408C463.44 37.408 465.488 37.7533 467.017 38.444C468.596 39.1347 469.78 40.0473 470.569 41.182C471.408 42.2673 471.95 43.476 472.197 44.808C472.493 46.14 472.641 47.472 472.641 48.804C472.641 51.764 472.567 54.65 472.419 57.462C472.271 60.274 472.197 62.938 472.197 65.454C472.197 67.2793 472.271 69.006 472.419 70.634C472.567 72.262 472.838 73.7667 473.233 75.148H468.867L467.313 69.968H466.943C466.499 70.6587 465.932 71.3493 465.241 72.04C464.6 72.6813 463.81 73.2733 462.873 73.816C461.936 74.3093 460.85 74.7287 459.617 75.074C458.384 75.4193 456.978 75.592 455.399 75.592C453.82 75.592 452.34 75.3453 450.959 74.852C449.627 74.3587 448.468 73.668 447.481 72.78C446.494 71.8427 445.705 70.7327 445.113 69.45C444.57 68.1673 444.299 66.712 444.299 65.084C444.299 62.9133 444.743 61.1127 445.631 59.682C446.519 58.202 447.752 57.0427 449.331 56.204C450.959 55.316 452.883 54.6993 455.103 54.354C457.372 53.9593 459.864 53.762 462.577 53.762C463.268 53.762 463.934 53.762 464.575 53.762C465.266 53.762 465.956 53.8113 466.647 53.91C466.795 52.43 466.869 51.098 466.869 49.914C466.869 47.2007 466.326 45.3013 465.241 44.216C464.156 43.1307 462.182 42.588 459.321 42.588C458.482 42.588 457.57 42.662 456.583 42.81C455.646 42.9087 454.659 43.0813 453.623 43.328C452.636 43.5253 451.674 43.7967 450.737 44.142C449.849 44.438 449.06 44.7833 448.369 45.178L446.519 40.738ZM457.027 70.412C458.408 70.412 459.642 70.2393 460.727 69.894C461.812 69.4993 462.75 69.0307 463.539 68.488C464.328 67.896 464.97 67.2547 465.463 66.564C466.006 65.8733 466.4 65.2073 466.647 64.566V58.424C465.956 58.3747 465.241 58.35 464.501 58.35C463.81 58.3007 463.12 58.276 462.429 58.276C460.9 58.276 459.395 58.3747 457.915 58.572C456.484 58.72 455.202 59.0407 454.067 59.534C452.982 59.978 452.094 60.6193 451.403 61.458C450.762 62.2473 450.441 63.2587 450.441 64.492C450.441 66.2187 451.058 67.6493 452.291 68.784C453.524 69.8693 455.103 70.412 457.027 70.412Z" fill="white"/>
<path d="M203.705 60.644H184.613L179.433 75H173.365L192.975 22.386H195.787L215.471 75H209.033L203.705 60.644ZM186.611 55.316H201.855L196.083 39.554L194.233 31.71H194.159L192.309 39.702L186.611 55.316Z" fill="#EB5757"/>
</svg>
