<svg width="233" height="47" viewBox="0 0 233 47" fill="none" xmlns="http://www.w3.org/2000/svg">
<line x1="97.936" y1="10" x2="107.812" y2="10" stroke="#EB5757" stroke-width="2"/>
<line x1="102.885" y1="5" x2="102.885" y2="15" stroke="#EB5757" stroke-width="2"/>
<path d="M18.252 17.56C18.252 18.16 18.156 18.772 17.964 19.396C17.772 20.02 17.484 20.608 17.1 21.16C16.716 21.688 16.224 22.156 15.624 22.564C15.024 22.972 14.316 23.284 13.5 23.5V23.644C14.22 23.764 14.904 23.968 15.552 24.256C16.224 24.544 16.812 24.94 17.316 25.444C17.82 25.948 18.228 26.56 18.54 27.28C18.852 28 19.008 28.852 19.008 29.836C19.008 31.132 18.732 32.26 18.18 33.22C17.652 34.156 16.944 34.924 16.056 35.524C15.192 36.124 14.196 36.568 13.068 36.856C11.94 37.144 10.788 37.288 9.612 37.288C9.204 37.288 8.724 37.288 8.172 37.288C7.62 37.288 7.044 37.264 6.444 37.216C5.844 37.192 5.244 37.144 4.644 37.072C4.044 37.024 3.516 36.94 3.06 36.82V12.016C3.948 11.872 4.98 11.752 6.156 11.656C7.332 11.56 8.616 11.512 10.008 11.512C10.944 11.512 11.892 11.596 12.852 11.764C13.836 11.908 14.724 12.208 15.516 12.664C16.308 13.096 16.956 13.708 17.46 14.5C17.988 15.292 18.252 16.312 18.252 17.56ZM9.9 34.696C10.668 34.696 11.412 34.612 12.132 34.444C12.852 34.252 13.488 33.964 14.04 33.58C14.592 33.172 15.024 32.68 15.336 32.104C15.672 31.528 15.84 30.844 15.84 30.052C15.84 29.068 15.636 28.276 15.228 27.676C14.844 27.076 14.328 26.608 13.68 26.272C13.056 25.936 12.348 25.708 11.556 25.588C10.764 25.468 9.972 25.408 9.18 25.408H6.048V34.444C6.216 34.492 6.456 34.528 6.768 34.552C7.08 34.576 7.416 34.6 7.776 34.624C8.136 34.648 8.508 34.672 8.892 34.696C9.276 34.696 9.612 34.696 9.9 34.696ZM7.92 22.888C8.328 22.888 8.82 22.876 9.396 22.852C9.972 22.828 10.452 22.792 10.836 22.744C11.412 22.552 11.952 22.324 12.456 22.06C12.96 21.772 13.404 21.448 13.788 21.088C14.196 20.704 14.508 20.272 14.724 19.792C14.964 19.288 15.084 18.748 15.084 18.172C15.084 17.38 14.928 16.732 14.616 16.228C14.328 15.7 13.932 15.28 13.428 14.968C12.924 14.656 12.348 14.44 11.7 14.32C11.052 14.176 10.392 14.104 9.72 14.104C8.928 14.104 8.196 14.128 7.524 14.176C6.876 14.2 6.384 14.248 6.048 14.32V22.888H7.92ZM24.5874 28C24.5874 24.952 25.2594 22.624 26.6034 21.016C27.9714 19.384 29.9274 18.568 32.4714 18.568C33.8154 18.568 34.9794 18.796 35.9634 19.252C36.9714 19.684 37.7994 20.32 38.4474 21.16C39.0954 21.976 39.5754 22.972 39.8874 24.148C40.1994 25.3 40.3554 26.584 40.3554 28C40.3554 31.048 39.6714 33.388 38.3034 35.02C36.9594 36.628 35.0154 37.432 32.4714 37.432C31.1274 37.432 29.9514 37.216 28.9434 36.784C27.9594 36.328 27.1434 35.692 26.4954 34.876C25.8474 34.036 25.3674 33.04 25.0554 31.888C24.7434 30.712 24.5874 29.416 24.5874 28ZM27.5754 28C27.5754 28.912 27.6594 29.788 27.8274 30.628C28.0194 31.468 28.3074 32.2 28.6914 32.824C29.0754 33.448 29.5794 33.952 30.2034 34.336C30.8274 34.72 31.5834 34.912 32.4714 34.912C35.7354 34.936 37.3674 32.632 37.3674 28C37.3674 27.064 37.2714 26.176 37.0794 25.336C36.9114 24.496 36.6354 23.764 36.2514 23.14C35.8674 22.516 35.3634 22.024 34.7394 21.664C34.1154 21.28 33.3594 21.088 32.4714 21.088C29.2074 21.064 27.5754 23.368 27.5754 28ZM45.6882 28C45.6882 24.952 46.3602 22.624 47.7042 21.016C49.0722 19.384 51.0282 18.568 53.5722 18.568C54.9162 18.568 56.0802 18.796 57.0642 19.252C58.0722 19.684 58.9002 20.32 59.5482 21.16C60.1962 21.976 60.6762 22.972 60.9882 24.148C61.3002 25.3 61.4562 26.584 61.4562 28C61.4562 31.048 60.7722 33.388 59.4042 35.02C58.0602 36.628 56.1162 37.432 53.5722 37.432C52.2282 37.432 51.0522 37.216 50.0442 36.784C49.0602 36.328 48.2442 35.692 47.5962 34.876C46.9482 34.036 46.4682 33.04 46.1562 31.888C45.8442 30.712 45.6882 29.416 45.6882 28ZM48.6762 28C48.6762 28.912 48.7602 29.788 48.9282 30.628C49.1202 31.468 49.4082 32.2 49.7922 32.824C50.1762 33.448 50.6802 33.952 51.3042 34.336C51.9282 34.72 52.6842 34.912 53.5722 34.912C56.8362 34.936 58.4682 32.632 58.4682 28C58.4682 27.064 58.3722 26.176 58.1802 25.336C58.0122 24.496 57.7362 23.764 57.3522 23.14C56.9682 22.516 56.4642 22.024 55.8402 21.664C55.2162 21.28 54.4602 21.088 53.5722 21.088C50.3082 21.064 48.6762 23.368 48.6762 28ZM72.333 28.9H70.677V37H67.797V11.8H70.677V27.136L72.153 26.632L77.733 19H81.081L75.573 26.236L74.097 27.424L75.897 28.864L81.909 37H78.345L72.333 28.9ZM117.602 32.104C117.602 31.384 117.386 30.82 116.954 30.412C116.522 30.004 115.982 29.668 115.334 29.404C114.71 29.116 114.014 28.852 113.246 28.612C112.502 28.348 111.806 28.024 111.158 27.64C110.534 27.232 110.006 26.716 109.574 26.092C109.142 25.468 108.926 24.628 108.926 23.572C108.926 21.844 109.418 20.584 110.402 19.792C111.386 18.976 112.754 18.568 114.506 18.568C115.802 18.568 116.882 18.688 117.746 18.928C118.634 19.144 119.402 19.408 120.05 19.72L119.366 22.096C118.814 21.832 118.142 21.604 117.35 21.412C116.582 21.196 115.754 21.088 114.866 21.088C113.81 21.088 113.03 21.268 112.526 21.628C112.046 21.988 111.806 22.612 111.806 23.5C111.806 24.124 112.022 24.616 112.454 24.976C112.886 25.312 113.414 25.624 114.038 25.912C114.686 26.176 115.382 26.44 116.126 26.704C116.894 26.968 117.59 27.316 118.214 27.748C118.862 28.18 119.402 28.732 119.834 29.404C120.266 30.052 120.482 30.916 120.482 31.996C120.482 32.764 120.35 33.484 120.086 34.156C119.846 34.828 119.462 35.404 118.934 35.884C118.406 36.364 117.746 36.736 116.954 37C116.186 37.288 115.274 37.432 114.218 37.432C112.85 37.432 111.686 37.3 110.726 37.036C109.766 36.772 108.962 36.46 108.314 36.1L109.178 33.652C109.73 33.964 110.45 34.252 111.338 34.516C112.226 34.78 113.126 34.912 114.038 34.912C115.07 34.912 115.922 34.708 116.594 34.3C117.266 33.892 117.602 33.16 117.602 32.104ZM138.191 37V26.74C138.191 25.804 138.131 24.988 138.011 24.292C137.915 23.572 137.723 22.984 137.435 22.528C137.147 22.048 136.751 21.688 136.247 21.448C135.767 21.208 135.131 21.088 134.339 21.088C133.211 21.088 132.191 21.46 131.279 22.204C130.367 22.924 129.779 23.86 129.515 25.012V37H126.635V11.8H129.515V21.016H129.659C130.283 20.272 131.027 19.684 131.891 19.252C132.779 18.796 133.871 18.568 135.167 18.568C136.175 18.568 137.051 18.688 137.795 18.928C138.539 19.144 139.151 19.54 139.631 20.116C140.135 20.692 140.495 21.472 140.711 22.456C140.951 23.416 141.071 24.64 141.071 26.128V37H138.191ZM152.658 28.9H151.002V37H148.122V11.8H151.002V27.136L152.478 26.632L158.058 19H161.406L155.898 26.236L154.422 27.424L156.222 28.864L162.234 37H158.67L152.658 28.9ZM166.861 20.332C167.773 19.78 168.829 19.372 170.029 19.108C171.253 18.844 172.525 18.712 173.845 18.712C175.093 18.712 176.089 18.88 176.833 19.216C177.601 19.552 178.177 19.996 178.561 20.548C178.969 21.076 179.233 21.664 179.353 22.312C179.497 22.96 179.569 23.608 179.569 24.256C179.569 25.696 179.533 27.1 179.461 28.468C179.389 29.836 179.353 31.132 179.353 32.356C179.353 33.244 179.389 34.084 179.461 34.876C179.533 35.668 179.665 36.4 179.857 37.072H177.733L176.977 34.552H176.797C176.581 34.888 176.305 35.224 175.969 35.56C175.657 35.872 175.273 36.16 174.817 36.424C174.361 36.664 173.833 36.868 173.233 37.036C172.633 37.204 171.949 37.288 171.181 37.288C170.413 37.288 169.693 37.168 169.021 36.928C168.373 36.688 167.809 36.352 167.329 35.92C166.849 35.464 166.465 34.924 166.177 34.3C165.913 33.676 165.781 32.968 165.781 32.176C165.781 31.12 165.997 30.244 166.429 29.548C166.861 28.828 167.461 28.264 168.229 27.856C169.021 27.424 169.957 27.124 171.037 26.956C172.141 26.764 173.353 26.668 174.673 26.668C175.009 26.668 175.333 26.668 175.645 26.668C175.981 26.668 176.317 26.692 176.653 26.74C176.725 26.02 176.761 25.372 176.761 24.796C176.761 23.476 176.497 22.552 175.969 22.024C175.441 21.496 174.481 21.232 173.089 21.232C172.681 21.232 172.237 21.268 171.757 21.34C171.301 21.388 170.821 21.472 170.317 21.592C169.837 21.688 169.369 21.82 168.913 21.988C168.481 22.132 168.097 22.3 167.761 22.492L166.861 20.332ZM171.973 34.768C172.645 34.768 173.245 34.684 173.773 34.516C174.301 34.324 174.757 34.096 175.141 33.832C175.525 33.544 175.837 33.232 176.077 32.896C176.341 32.56 176.533 32.236 176.653 31.924V28.936C176.317 28.912 175.969 28.9 175.609 28.9C175.273 28.876 174.937 28.864 174.601 28.864C173.857 28.864 173.125 28.912 172.405 29.008C171.709 29.08 171.085 29.236 170.533 29.476C170.005 29.692 169.573 30.004 169.237 30.412C168.925 30.796 168.769 31.288 168.769 31.888C168.769 32.728 169.069 33.424 169.669 33.976C170.269 34.504 171.037 34.768 171.973 34.768ZM185.8 35.344C185.8 34.696 185.98 34.192 186.34 33.832C186.724 33.448 187.228 33.256 187.852 33.256C188.5 33.256 189.016 33.448 189.4 33.832C189.784 34.192 189.976 34.696 189.976 35.344C189.976 35.968 189.784 36.472 189.4 36.856C189.016 37.24 188.5 37.432 187.852 37.432C187.228 37.432 186.724 37.24 186.34 36.856C185.98 36.472 185.8 35.968 185.8 35.344ZM198.899 19V29.26C198.899 30.196 198.947 31.024 199.043 31.744C199.163 32.44 199.355 33.028 199.619 33.508C199.883 33.964 200.243 34.312 200.699 34.552C201.155 34.792 201.731 34.912 202.427 34.912C203.075 34.912 203.651 34.816 204.155 34.624C204.659 34.408 205.103 34.12 205.487 33.76C205.895 33.4 206.243 32.992 206.531 32.536C206.843 32.056 207.095 31.552 207.287 31.024V19H210.167V31.888C210.167 32.752 210.191 33.652 210.239 34.588C210.311 35.5 210.419 36.304 210.563 37H208.583L207.863 34.156H207.683C207.131 35.092 206.387 35.872 205.451 36.496C204.515 37.12 203.327 37.432 201.887 37.432C200.927 37.432 200.075 37.312 199.331 37.072C198.611 36.856 197.999 36.46 197.495 35.884C197.015 35.308 196.643 34.54 196.379 33.58C196.139 32.596 196.019 31.36 196.019 29.872V19H198.899ZM217.225 20.332C218.137 19.78 219.193 19.372 220.393 19.108C221.617 18.844 222.889 18.712 224.209 18.712C225.457 18.712 226.453 18.88 227.197 19.216C227.965 19.552 228.541 19.996 228.925 20.548C229.333 21.076 229.597 21.664 229.717 22.312C229.861 22.96 229.933 23.608 229.933 24.256C229.933 25.696 229.897 27.1 229.825 28.468C229.753 29.836 229.717 31.132 229.717 32.356C229.717 33.244 229.753 34.084 229.825 34.876C229.897 35.668 230.029 36.4 230.221 37.072H228.097L227.341 34.552H227.161C226.945 34.888 226.669 35.224 226.333 35.56C226.021 35.872 225.637 36.16 225.181 36.424C224.725 36.664 224.197 36.868 223.597 37.036C222.997 37.204 222.313 37.288 221.545 37.288C220.777 37.288 220.057 37.168 219.385 36.928C218.737 36.688 218.173 36.352 217.693 35.92C217.213 35.464 216.829 34.924 216.541 34.3C216.277 33.676 216.145 32.968 216.145 32.176C216.145 31.12 216.361 30.244 216.793 29.548C217.225 28.828 217.825 28.264 218.593 27.856C219.385 27.424 220.321 27.124 221.401 26.956C222.505 26.764 223.717 26.668 225.037 26.668C225.373 26.668 225.697 26.668 226.009 26.668C226.345 26.668 226.681 26.692 227.017 26.74C227.089 26.02 227.125 25.372 227.125 24.796C227.125 23.476 226.861 22.552 226.333 22.024C225.805 21.496 224.845 21.232 223.453 21.232C223.045 21.232 222.601 21.268 222.121 21.34C221.665 21.388 221.185 21.472 220.681 21.592C220.201 21.688 219.733 21.82 219.277 21.988C218.845 22.132 218.461 22.3 218.125 22.492L217.225 20.332ZM222.337 34.768C223.009 34.768 223.609 34.684 224.137 34.516C224.665 34.324 225.121 34.096 225.505 33.832C225.889 33.544 226.201 33.232 226.441 32.896C226.705 32.56 226.897 32.236 227.017 31.924V28.936C226.681 28.912 226.333 28.9 225.973 28.9C225.637 28.876 225.301 28.864 224.965 28.864C224.221 28.864 223.489 28.912 222.769 29.008C222.073 29.08 221.449 29.236 220.897 29.476C220.369 29.692 219.937 30.004 219.601 30.412C219.289 30.796 219.133 31.288 219.133 31.888C219.133 32.728 219.433 33.424 220.033 33.976C220.633 34.504 221.401 34.768 222.337 34.768Z" fill="#F2F2F2"/>
<path d="M99.0996 30.016H89.8116L87.2916 37H84.3396L93.8796 11.404H95.2476L104.824 37H101.692L99.0996 30.016ZM90.7836 27.424H98.1996L95.3916 19.756L94.4916 15.94H94.4556L93.5556 19.828L90.7836 27.424Z" fill="#EB5757"/>
</svg>
