<svg width="17" height="17" viewBox="0 0 17 17" fill="none" xmlns="http://www.w3.org/2000/svg">
<path d="M15.875 0.736267L12.9375 0.0800171C12.25 -0.0762329 11.5625 0.267517 11.3125 0.892517L9.9375 4.08002C9.6875 4.64252 9.84375 5.33002 10.3438 5.73627L11.5938 6.76752C10.7188 8.39252 9.34375 9.73627 7.71875 10.6425L6.6875 9.39252C6.28125 8.89252 5.59375 8.73627 5.03125 8.98627L1.84375 10.33C1.21875 10.6113 0.875 11.2988 1.03125 11.9863L1.6875 14.9238C1.84375 15.58 2.4375 16.0175 3.09375 16.0175C10.75 16.0175 17 9.83002 17 2.14252C17 1.48627 16.5312 0.892517 15.875 0.736267ZM3.15625 14.5175L2.5 11.705L5.5625 10.3925L7.3125 12.5175C10.4062 11.0488 12 9.45502 13.4688 6.36127L11.3438 4.61127L12.6562 1.54877L15.5 2.20502C15.4688 8.98627 9.9375 14.4863 3.15625 14.5175Z" fill="white"/>
</svg>
