<svg width="18" height="19" viewBox="0 0 18 19" fill="none" xmlns="http://www.w3.org/2000/svg">
<path d="M4 9.5H6V11.4H4V9.5Z" fill="#F2F2F2"/>
<path d="M4 13.3H6V15.2H4V13.3Z" fill="#F2F2F2"/>
<path d="M10 9.5H8V11.4H10V9.5Z" fill="#F2F2F2"/>
<path d="M8 13.3H10V15.2H8V13.3Z" fill="#F2F2F2"/>
<path d="M14 9.5H12V11.4H14V9.5Z" fill="#F2F2F2"/>
<path d="M12 13.3H14V15.2H12V13.3Z" fill="#F2F2F2"/>
<path fill-rule="evenodd" clip-rule="evenodd" d="M16 19H2C0.897 19 0 18.1479 0 17.1V3.8C0 2.75215 0.897 1.9 2 1.9H4V0H6V1.9H12V0H14V1.9H16C17.103 1.9 18 2.75215 18 3.8V17.1C18 18.1479 17.103 19 16 19ZM16.0001 5.7L16 3.8H2V5.7H16.0001ZM16.0003 7.6L16.001 17.1H2V7.6H16.0003Z" fill="#F2F2F2"/>
</svg>
