<svg width="235" height="33" viewBox="0 0 235 33" fill="none" xmlns="http://www.w3.org/2000/svg">
<line x1="98.5806" y1="5" x2="108.538" y2="5" stroke="#EB5757" stroke-width="2"/>
<line x1="103.564" x2="103.564" y2="10" stroke="#EB5757" stroke-width="2"/>
<path d="M18.252 12.56C18.252 13.16 18.156 13.772 17.964 14.396C17.772 15.02 17.484 15.608 17.1 16.16C16.716 16.688 16.224 17.156 15.624 17.564C15.024 17.972 14.316 18.284 13.5 18.5V18.644C14.22 18.764 14.904 18.968 15.552 19.256C16.224 19.544 16.812 19.94 17.316 20.444C17.82 20.948 18.228 21.56 18.54 22.28C18.852 23 19.008 23.852 19.008 24.836C19.008 26.132 18.732 27.26 18.18 28.22C17.652 29.156 16.944 29.924 16.056 30.524C15.192 31.124 14.196 31.568 13.068 31.856C11.94 32.144 10.788 32.288 9.612 32.288C9.204 32.288 8.724 32.288 8.172 32.288C7.62 32.288 7.044 32.264 6.444 32.216C5.844 32.192 5.244 32.144 4.644 32.072C4.044 32.024 3.516 31.94 3.06 31.82V7.016C3.948 6.872 4.98 6.752 6.156 6.656C7.332 6.56 8.616 6.512 10.008 6.512C10.944 6.512 11.892 6.596 12.852 6.764C13.836 6.908 14.724 7.208 15.516 7.664C16.308 8.096 16.956 8.708 17.46 9.5C17.988 10.292 18.252 11.312 18.252 12.56ZM9.9 29.696C10.668 29.696 11.412 29.612 12.132 29.444C12.852 29.252 13.488 28.964 14.04 28.58C14.592 28.172 15.024 27.68 15.336 27.104C15.672 26.528 15.84 25.844 15.84 25.052C15.84 24.068 15.636 23.276 15.228 22.676C14.844 22.076 14.328 21.608 13.68 21.272C13.056 20.936 12.348 20.708 11.556 20.588C10.764 20.468 9.972 20.408 9.18 20.408H6.048V29.444C6.216 29.492 6.456 29.528 6.768 29.552C7.08 29.576 7.416 29.6 7.776 29.624C8.136 29.648 8.508 29.672 8.892 29.696C9.276 29.696 9.612 29.696 9.9 29.696ZM7.92 17.888C8.328 17.888 8.82 17.876 9.396 17.852C9.972 17.828 10.452 17.792 10.836 17.744C11.412 17.552 11.952 17.324 12.456 17.06C12.96 16.772 13.404 16.448 13.788 16.088C14.196 15.704 14.508 15.272 14.724 14.792C14.964 14.288 15.084 13.748 15.084 13.172C15.084 12.38 14.928 11.732 14.616 11.228C14.328 10.7 13.932 10.28 13.428 9.968C12.924 9.656 12.348 9.44 11.7 9.32C11.052 9.176 10.392 9.104 9.72 9.104C8.928 9.104 8.196 9.128 7.524 9.176C6.876 9.2 6.384 9.248 6.048 9.32V17.888H7.92ZM24.5874 23C24.5874 19.952 25.2594 17.624 26.6034 16.016C27.9714 14.384 29.9274 13.568 32.4714 13.568C33.8154 13.568 34.9794 13.796 35.9634 14.252C36.9714 14.684 37.7994 15.32 38.4474 16.16C39.0954 16.976 39.5754 17.972 39.8874 19.148C40.1994 20.3 40.3554 21.584 40.3554 23C40.3554 26.048 39.6714 28.388 38.3034 30.02C36.9594 31.628 35.0154 32.432 32.4714 32.432C31.1274 32.432 29.9514 32.216 28.9434 31.784C27.9594 31.328 27.1434 30.692 26.4954 29.876C25.8474 29.036 25.3674 28.04 25.0554 26.888C24.7434 25.712 24.5874 24.416 24.5874 23ZM27.5754 23C27.5754 23.912 27.6594 24.788 27.8274 25.628C28.0194 26.468 28.3074 27.2 28.6914 27.824C29.0754 28.448 29.5794 28.952 30.2034 29.336C30.8274 29.72 31.5834 29.912 32.4714 29.912C35.7354 29.936 37.3674 27.632 37.3674 23C37.3674 22.064 37.2714 21.176 37.0794 20.336C36.9114 19.496 36.6354 18.764 36.2514 18.14C35.8674 17.516 35.3634 17.024 34.7394 16.664C34.1154 16.28 33.3594 16.088 32.4714 16.088C29.2074 16.064 27.5754 18.368 27.5754 23ZM45.6882 23C45.6882 19.952 46.3602 17.624 47.7042 16.016C49.0722 14.384 51.0282 13.568 53.5722 13.568C54.9162 13.568 56.0802 13.796 57.0642 14.252C58.0722 14.684 58.9002 15.32 59.5482 16.16C60.1962 16.976 60.6762 17.972 60.9882 19.148C61.3002 20.3 61.4562 21.584 61.4562 23C61.4562 26.048 60.7722 28.388 59.4042 30.02C58.0602 31.628 56.1162 32.432 53.5722 32.432C52.2282 32.432 51.0522 32.216 50.0442 31.784C49.0602 31.328 48.2442 30.692 47.5962 29.876C46.9482 29.036 46.4682 28.04 46.1562 26.888C45.8442 25.712 45.6882 24.416 45.6882 23ZM48.6762 23C48.6762 23.912 48.7602 24.788 48.9282 25.628C49.1202 26.468 49.4082 27.2 49.7922 27.824C50.1762 28.448 50.6802 28.952 51.3042 29.336C51.9282 29.72 52.6842 29.912 53.5722 29.912C56.8362 29.936 58.4682 27.632 58.4682 23C58.4682 22.064 58.3722 21.176 58.1802 20.336C58.0122 19.496 57.7362 18.764 57.3522 18.14C56.9682 17.516 56.4642 17.024 55.8402 16.664C55.2162 16.28 54.4602 16.088 53.5722 16.088C50.3082 16.064 48.6762 18.368 48.6762 23ZM72.333 23.9H70.677V32H67.797V6.8H70.677V22.136L72.153 21.632L77.733 14H81.081L75.573 21.236L74.097 22.424L75.897 23.864L81.909 32H78.345L72.333 23.9ZM117.602 27.104C117.602 26.384 117.386 25.82 116.954 25.412C116.522 25.004 115.982 24.668 115.334 24.404C114.71 24.116 114.014 23.852 113.246 23.612C112.502 23.348 111.806 23.024 111.158 22.64C110.534 22.232 110.006 21.716 109.574 21.092C109.142 20.468 108.926 19.628 108.926 18.572C108.926 16.844 109.418 15.584 110.402 14.792C111.386 13.976 112.754 13.568 114.506 13.568C115.802 13.568 116.882 13.688 117.746 13.928C118.634 14.144 119.402 14.408 120.05 14.72L119.366 17.096C118.814 16.832 118.142 16.604 117.35 16.412C116.582 16.196 115.754 16.088 114.866 16.088C113.81 16.088 113.03 16.268 112.526 16.628C112.046 16.988 111.806 17.612 111.806 18.5C111.806 19.124 112.022 19.616 112.454 19.976C112.886 20.312 113.414 20.624 114.038 20.912C114.686 21.176 115.382 21.44 116.126 21.704C116.894 21.968 117.59 22.316 118.214 22.748C118.862 23.18 119.402 23.732 119.834 24.404C120.266 25.052 120.482 25.916 120.482 26.996C120.482 27.764 120.35 28.484 120.086 29.156C119.846 29.828 119.462 30.404 118.934 30.884C118.406 31.364 117.746 31.736 116.954 32C116.186 32.288 115.274 32.432 114.218 32.432C112.85 32.432 111.686 32.3 110.726 32.036C109.766 31.772 108.962 31.46 108.314 31.1L109.178 28.652C109.73 28.964 110.45 29.252 111.338 29.516C112.226 29.78 113.126 29.912 114.038 29.912C115.07 29.912 115.922 29.708 116.594 29.3C117.266 28.892 117.602 28.16 117.602 27.104ZM138.191 32V21.74C138.191 20.804 138.131 19.988 138.011 19.292C137.915 18.572 137.723 17.984 137.435 17.528C137.147 17.048 136.751 16.688 136.247 16.448C135.767 16.208 135.131 16.088 134.339 16.088C133.211 16.088 132.191 16.46 131.279 17.204C130.367 17.924 129.779 18.86 129.515 20.012V32H126.635V6.8H129.515V16.016H129.659C130.283 15.272 131.027 14.684 131.891 14.252C132.779 13.796 133.871 13.568 135.167 13.568C136.175 13.568 137.051 13.688 137.795 13.928C138.539 14.144 139.151 14.54 139.631 15.116C140.135 15.692 140.495 16.472 140.711 17.456C140.951 18.416 141.071 19.64 141.071 21.128V32H138.191ZM152.658 23.9H151.002V32H148.122V6.8H151.002V22.136L152.478 21.632L158.058 14H161.406L155.898 21.236L154.422 22.424L156.222 23.864L162.234 32H158.67L152.658 23.9ZM166.861 15.332C167.773 14.78 168.829 14.372 170.029 14.108C171.253 13.844 172.525 13.712 173.845 13.712C175.093 13.712 176.089 13.88 176.833 14.216C177.601 14.552 178.177 14.996 178.561 15.548C178.969 16.076 179.233 16.664 179.353 17.312C179.497 17.96 179.569 18.608 179.569 19.256C179.569 20.696 179.533 22.1 179.461 23.468C179.389 24.836 179.353 26.132 179.353 27.356C179.353 28.244 179.389 29.084 179.461 29.876C179.533 30.668 179.665 31.4 179.857 32.072H177.733L176.977 29.552H176.797C176.581 29.888 176.305 30.224 175.969 30.56C175.657 30.872 175.273 31.16 174.817 31.424C174.361 31.664 173.833 31.868 173.233 32.036C172.633 32.204 171.949 32.288 171.181 32.288C170.413 32.288 169.693 32.168 169.021 31.928C168.373 31.688 167.809 31.352 167.329 30.92C166.849 30.464 166.465 29.924 166.177 29.3C165.913 28.676 165.781 27.968 165.781 27.176C165.781 26.12 165.997 25.244 166.429 24.548C166.861 23.828 167.461 23.264 168.229 22.856C169.021 22.424 169.957 22.124 171.037 21.956C172.141 21.764 173.353 21.668 174.673 21.668C175.009 21.668 175.333 21.668 175.645 21.668C175.981 21.668 176.317 21.692 176.653 21.74C176.725 21.02 176.761 20.372 176.761 19.796C176.761 18.476 176.497 17.552 175.969 17.024C175.441 16.496 174.481 16.232 173.089 16.232C172.681 16.232 172.237 16.268 171.757 16.34C171.301 16.388 170.821 16.472 170.317 16.592C169.837 16.688 169.369 16.82 168.913 16.988C168.481 17.132 168.097 17.3 167.761 17.492L166.861 15.332ZM171.973 29.768C172.645 29.768 173.245 29.684 173.773 29.516C174.301 29.324 174.757 29.096 175.141 28.832C175.525 28.544 175.837 28.232 176.077 27.896C176.341 27.56 176.533 27.236 176.653 26.924V23.936C176.317 23.912 175.969 23.9 175.609 23.9C175.273 23.876 174.937 23.864 174.601 23.864C173.857 23.864 173.125 23.912 172.405 24.008C171.709 24.08 171.085 24.236 170.533 24.476C170.005 24.692 169.573 25.004 169.237 25.412C168.925 25.796 168.769 26.288 168.769 26.888C168.769 27.728 169.069 28.424 169.669 28.976C170.269 29.504 171.037 29.768 171.973 29.768ZM185.8 30.344C185.8 29.696 185.98 29.192 186.34 28.832C186.724 28.448 187.228 28.256 187.852 28.256C188.5 28.256 189.016 28.448 189.4 28.832C189.784 29.192 189.976 29.696 189.976 30.344C189.976 30.968 189.784 31.472 189.4 31.856C189.016 32.24 188.5 32.432 187.852 32.432C187.228 32.432 186.724 32.24 186.34 31.856C185.98 31.472 185.8 30.968 185.8 30.344ZM198.899 14V24.26C198.899 25.196 198.947 26.024 199.043 26.744C199.163 27.44 199.355 28.028 199.619 28.508C199.883 28.964 200.243 29.312 200.699 29.552C201.155 29.792 201.731 29.912 202.427 29.912C203.075 29.912 203.651 29.816 204.155 29.624C204.659 29.408 205.103 29.12 205.487 28.76C205.895 28.4 206.243 27.992 206.531 27.536C206.843 27.056 207.095 26.552 207.287 26.024V14H210.167V26.888C210.167 27.752 210.191 28.652 210.239 29.588C210.311 30.5 210.419 31.304 210.563 32H208.583L207.863 29.156H207.683C207.131 30.092 206.387 30.872 205.451 31.496C204.515 32.12 203.327 32.432 201.887 32.432C200.927 32.432 200.075 32.312 199.331 32.072C198.611 31.856 197.999 31.46 197.495 30.884C197.015 30.308 196.643 29.54 196.379 28.58C196.139 27.596 196.019 26.36 196.019 24.872V14H198.899ZM217.225 15.332C218.137 14.78 219.193 14.372 220.393 14.108C221.617 13.844 222.889 13.712 224.209 13.712C225.457 13.712 226.453 13.88 227.197 14.216C227.965 14.552 228.541 14.996 228.925 15.548C229.333 16.076 229.597 16.664 229.717 17.312C229.861 17.96 229.933 18.608 229.933 19.256C229.933 20.696 229.897 22.1 229.825 23.468C229.753 24.836 229.717 26.132 229.717 27.356C229.717 28.244 229.753 29.084 229.825 29.876C229.897 30.668 230.029 31.4 230.221 32.072H228.097L227.341 29.552H227.161C226.945 29.888 226.669 30.224 226.333 30.56C226.021 30.872 225.637 31.16 225.181 31.424C224.725 31.664 224.197 31.868 223.597 32.036C222.997 32.204 222.313 32.288 221.545 32.288C220.777 32.288 220.057 32.168 219.385 31.928C218.737 31.688 218.173 31.352 217.693 30.92C217.213 30.464 216.829 29.924 216.541 29.3C216.277 28.676 216.145 27.968 216.145 27.176C216.145 26.12 216.361 25.244 216.793 24.548C217.225 23.828 217.825 23.264 218.593 22.856C219.385 22.424 220.321 22.124 221.401 21.956C222.505 21.764 223.717 21.668 225.037 21.668C225.373 21.668 225.697 21.668 226.009 21.668C226.345 21.668 226.681 21.692 227.017 21.74C227.089 21.02 227.125 20.372 227.125 19.796C227.125 18.476 226.861 17.552 226.333 17.024C225.805 16.496 224.845 16.232 223.453 16.232C223.045 16.232 222.601 16.268 222.121 16.34C221.665 16.388 221.185 16.472 220.681 16.592C220.201 16.688 219.733 16.82 219.277 16.988C218.845 17.132 218.461 17.3 218.125 17.492L217.225 15.332ZM222.337 29.768C223.009 29.768 223.609 29.684 224.137 29.516C224.665 29.324 225.121 29.096 225.505 28.832C225.889 28.544 226.201 28.232 226.441 27.896C226.705 27.56 226.897 27.236 227.017 26.924V23.936C226.681 23.912 226.333 23.9 225.973 23.9C225.637 23.876 225.301 23.864 224.965 23.864C224.221 23.864 223.489 23.912 222.769 24.008C222.073 24.08 221.449 24.236 220.897 24.476C220.369 24.692 219.937 25.004 219.601 25.412C219.289 25.796 219.133 26.288 219.133 26.888C219.133 27.728 219.433 28.424 220.033 28.976C220.633 29.504 221.401 29.768 222.337 29.768Z" fill="#F2F2F2"/>
<path d="M99.0996 25.016H89.8116L87.2916 32H84.3396L93.8796 6.404H95.2476L104.824 32H101.692L99.0996 25.016ZM90.7836 22.424H98.1996L95.3916 14.756L94.4916 10.94H94.4556L93.5556 14.828L90.7836 22.424Z" fill="#EB5757"/>
</svg>
