<svg width="20" height="20" viewBox="0 0 20 20" fill="none" xmlns="http://www.w3.org/2000/svg">
<path d="M14.6666 4.66666H16M5.99996 0.666656H14C16.9455 0.666656 19.3333 3.05447 19.3333 5.99999V14C19.3333 16.9455 16.9455 19.3333 14 19.3333H5.99996C3.05444 19.3333 0.666626 16.9455 0.666626 14V5.99999C0.666626 3.05447 3.05444 0.666656 5.99996 0.666656ZM9.99996 14C7.79082 14 5.99996 12.2091 5.99996 9.99999C5.99996 7.79085 7.79082 5.99999 9.99996 5.99999C12.2091 5.99999 14 7.79085 14 9.99999C14 12.2091 12.2091 14 9.99996 14Z" stroke="#333333"/>
</svg>
